<svg xmlns="http://www.w3.org/2000/svg" version="1.1" xmlns:xlink="http://www.w3.org/1999/xlink" xmlns:svgjs="http://svgjs.dev/svgjs" viewBox="0 0 800 800"><g shape-rendering="crispEdges"><g><use xlink:href="#SvgjsSymbol1006" x="100" y="50" fill="hsl(13, 99%, 60%)"></use><use xlink:href="#SvgjsSymbol1007" x="100" y="50" fill="#ff9261"></use><use xlink:href="#SvgjsSymbol1008" x="100" y="50" fill="#c42b04"></use></g><g><use xlink:href="#SvgjsSymbol1006" x="600" y="150" fill="hsl(13, 99%, 60%)"></use><use xlink:href="#SvgjsSymbol1007" x="600" y="150" fill="#ff9261"></use><use xlink:href="#SvgjsSymbol1008" x="600" y="150" fill="#c42b04"></use></g><g><use xlink:href="#SvgjsSymbol1006" x="125" y="375" fill="hsl(13, 99%, 60%)"></use><use xlink:href="#SvgjsSymbol1007" x="125" y="375" fill="#ff9261"></use><use xlink:href="#SvgjsSymbol1008" x="125" y="375" fill="#c42b04"></use></g><g><use xlink:href="#SvgjsSymbol1006" x="550" y="550" fill="hsl(13, 99%, 60%)"></use><use xlink:href="#SvgjsSymbol1007" x="550" y="550" fill="#ff9261"></use><use xlink:href="#SvgjsSymbol1008" x="550" y="550" fill="#c42b04"></use></g><g><use xlink:href="#SvgjsSymbol1006" x="300" y="575" fill="hsl(13, 99%, 60%)"></use><use xlink:href="#SvgjsSymbol1007" x="300" y="575" fill="#ff9261"></use><use xlink:href="#SvgjsSymbol1008" x="300" y="575" fill="#c42b04"></use></g><g><use xlink:href="#SvgjsSymbol1006" x="350" y="225" fill="hsl(13, 99%, 60%)"></use><use xlink:href="#SvgjsSymbol1007" x="350" y="225" fill="#ff9261"></use><use xlink:href="#SvgjsSymbol1008" x="350" y="225" fill="#c42b04"></use></g><g><use xlink:href="#SvgjsSymbol1006" x="25" y="675" fill="hsl(13, 99%, 60%)"></use><use xlink:href="#SvgjsSymbol1007" x="25" y="675" fill="#ff9261"></use><use xlink:href="#SvgjsSymbol1008" x="25" y="675" fill="#c42b04"></use></g><g><use xlink:href="#SvgjsSymbol1006" x="425" y="25" fill="hsl(13, 99%, 60%)"></use><use xlink:href="#SvgjsSymbol1007" x="425" y="25" fill="#ff9261"></use><use xlink:href="#SvgjsSymbol1008" x="425" y="25" fill="#c42b04"></use></g><g><use xlink:href="#SvgjsSymbol1006" x="675" y="350" fill="hsl(13, 99%, 60%)"></use><use xlink:href="#SvgjsSymbol1007" x="675" y="350" fill="#ff9261"></use><use xlink:href="#SvgjsSymbol1008" x="675" y="350" fill="#c42b04"></use></g></g><symbol id="SvgjsSymbol1000"><polygon points="0,12.5 25,0 50,12.5 25,25"></polygon></symbol><symbol id="SvgjsSymbol1001"><polygon points="0,12.5 25,25 25,50 0,37.5"></polygon></symbol><symbol id="SvgjsSymbol1002"><polygon points="25,25 50,12.5 50,37.5 25,50"></polygon></symbol><g></g><symbol id="SvgjsSymbol1003"><polygon points="0,18.75 37.5,0 75,18.75 37.5,37.5"></polygon></symbol><symbol id="SvgjsSymbol1004"><polygon points="0,18.75 37.5,37.5 37.5,75 0,56.25"></polygon></symbol><symbol id="SvgjsSymbol1005"><polygon points="37.5,37.5 75,18.75 75,56.25 37.5,75"></polygon></symbol><symbol id="SvgjsSymbol1006"><polygon points="0,25 50,0 100,25 50,50"></polygon></symbol><symbol id="SvgjsSymbol1007"><polygon points="0,25 50,50 50,100 0,75"></polygon></symbol><symbol id="SvgjsSymbol1008"><polygon points="50,50 100,25 100,75 50,100"></polygon></symbol></svg>