<svg xmlns="http://www.w3.org/2000/svg" version="1.1" xmlns:xlink="http://www.w3.org/1999/xlink" xmlns:svgjs="http://svgjs.dev/svgjs" viewBox="0 0 800 800"><defs><linearGradient x1="50%" y1="0%" x2="50%" y2="100%" id="ffflurry-grad" gradientTransform="rotate(270)"><stop stop-color="" stop-opacity="1" offset="0%"></stop><stop stop-color="hsl(30, 100%, 50%)" stop-opacity="1" offset="45%"></stop><stop stop-color="hsl(30, 100%, 70%)" stop-opacity="1" offset="100%"></stop></linearGradient></defs><rect width="100%" height="100%" fill=""></rect><g fill="url(#ffflurry-grad)"><rect width="379" height="3" x="-104.5" y="92.5" rx="1.5" transform="rotate(44, 85, 94)"></rect><rect width="1105" height="3" x="-195.5" y="671.5" rx="1.5" transform="rotate(44, 357, 673)"></rect><rect width="108" height="3" x="111" y="742.5" rx="1.5" transform="rotate(44, 165, 744)"></rect><rect width="427" height="3" x="45.5" y="218.5" rx="1.5" transform="rotate(44, 259, 220)"></rect><rect width="228" height="3" x="614" y="63.5" rx="1.5" transform="rotate(44, 728, 65)"></rect><rect width="202" height="3" x="298" y="283.5" rx="1.5" transform="rotate(44, 399, 285)"></rect><rect width="865" height="3" x="280.5" y="466.5" rx="1.5" transform="rotate(44, 713, 468)"></rect><rect width="224" height="3" x="625" y="229.5" rx="1.5" transform="rotate(44, 737, 231)"></rect><rect width="103" height="3" x="36.5" y="621.5" rx="1.5" transform="rotate(44, 88, 623)"></rect><rect width="154" height="3" x="1" y="428.5" rx="1.5" transform="rotate(44, 78, 430)"></rect><rect width="498" height="3" x="367" y="234.5" rx="1.5" transform="rotate(44, 616, 236)"></rect><rect width="777" height="3" x="257.5" y="696.5" rx="1.5" transform="rotate(44, 646, 698)"></rect><rect width="853" height="3" x="6.5" y="72.5" rx="1.5" transform="rotate(44, 433, 74)"></rect><rect width="270" height="3" x="461" y="63.5" rx="1.5" transform="rotate(44, 596, 65)"></rect><rect width="329" height="3" x="317.5" y="519.5" rx="1.5" transform="rotate(44, 482, 521)"></rect><rect width="478" height="3" x="281" y="165.5" rx="1.5" transform="rotate(44, 520, 167)"></rect><rect width="203" height="3" x="153.5" y="452.5" rx="1.5" transform="rotate(44, 255, 454)"></rect><rect width="593" height="3" x="-194.5" y="269.5" rx="1.5" transform="rotate(44, 102, 271)"></rect><rect width="1000" height="3" x="54" y="361.5" rx="1.5" transform="rotate(44, 554, 363)"></rect><rect width="73" height="3" x="232.5" y="63.5" rx="1.5" transform="rotate(44, 269, 65)"></rect></g></svg>